<svg xmlns="http://www.w3.org/2000/svg" viewBox="0 0 1062 153"><defs><style>.cls-1{fill:#457eb9;}.cls-2{font-size:24.75px;font-family:Raleway-Regular, Raleway;}.cls-2,.cls-3,.cls-5{fill:#fff;}.cls-4{fill:#333033;}.cls-5{font-size:43.59px;font-family:Raleway-Bold, Raleway;font-weight:700;letter-spacing:0.06em;}.cls-6{fill:none;stroke:#fff;stroke-miterlimit:10;stroke-width:3px;}</style></defs><title>Banner redes</title><g id="Capa_2" data-name="Capa 2"><g id="Capa_1-2" data-name="Capa 1"><rect class="cls-1" width="1062" height="153"/><text class="cls-2" transform="translate(400.35 87.31)">@merzaesthetics_col</text><circle class="cls-3" cx="365.62" cy="77.67" r="18.19"/><path class="cls-4" d="M365.63,98.61A20.77,20.77,0,1,1,386.4,77.85,20.79,20.79,0,0,1,365.63,98.61Zm7-29.19a1.54,1.54,0,1,0,0,3.07,1.54,1.54,0,0,0,0-3.07Zm-6.83,2a6.46,6.46,0,1,0,6.45,6.46A6.47,6.47,0,0,0,365.81,71.39Zm0,10.59a4.14,4.14,0,1,1,4.13-4.13A4.14,4.14,0,0,1,365.81,82Zm13-9.5A7.87,7.87,0,0,0,371,64.61H360.57a7.87,7.87,0,0,0-7.88,7.87V82.87a7.88,7.88,0,0,0,7.88,7.88H371a7.88,7.88,0,0,0,7.87-7.88Zm-2.47,10.39a5.41,5.41,0,0,1-5.4,5.41H360.57a5.41,5.41,0,0,1-5.41-5.41V72.48a5.41,5.41,0,0,1,5.41-5.4H371a5.4,5.4,0,0,1,5.4,5.4Z"/><text class="cls-2" transform="translate(735.24 87.31)">merzaesthetics.com</text><path class="cls-4" d="M700.18,98.71A20.87,20.87,0,1,1,721,77.85,20.89,20.89,0,0,1,700.18,98.71Z"/><path class="cls-3" d="M701.35,65.28a12.63,12.63,0,1,0,11.43,11.43A12.65,12.65,0,0,0,701.35,65.28Zm7.16,6.36a10.32,10.32,0,0,1,2.06,5.67.2.2,0,0,1-.24.2,18.79,18.79,0,0,0-6.56-.25.2.2,0,0,1-.2-.12q-.36-.84-.72-1.62a.18.18,0,0,1,.09-.25,17.64,17.64,0,0,0,5.27-3.65A.21.21,0,0,1,708.51,71.64ZM706.65,70a15.23,15.23,0,0,1-4.73,3.28.2.2,0,0,1-.25-.09A39.76,39.76,0,0,0,698.25,68a.2.2,0,0,1,.12-.31,10,10,0,0,1,1.83-.16,10.35,10.35,0,0,1,6.44,2.24A.2.2,0,0,1,706.65,70Zm-10.77-1.43a36.48,36.48,0,0,1,3.63,5.34.21.21,0,0,1-.12.29,37.09,37.09,0,0,1-9,1.24.19.19,0,0,1-.2-.24,10.43,10.43,0,0,1,5.49-6.68A.19.19,0,0,1,695.88,68.58ZM690,77.71A39,39,0,0,0,700.5,76.2a.2.2,0,0,1,.24.1c.2.42.39.85.58,1.29a.19.19,0,0,1-.11.26,18.7,18.7,0,0,0-8.81,6.52.2.2,0,0,1-.3,0,9.78,9.78,0,0,1-2.28-6.47A.2.2,0,0,1,690,77.71Zm4,8.23a16.56,16.56,0,0,1,8-6,.19.19,0,0,1,.24.12,39.75,39.75,0,0,1,1.84,7.25.2.2,0,0,1-.12.21,10.34,10.34,0,0,1-10-1.3A.19.19,0,0,1,694,85.94Zm12.18,0a41.66,41.66,0,0,0-1.66-6.33.2.2,0,0,1,.17-.26,17.55,17.55,0,0,1,5.51.38.2.2,0,0,1,.15.23,10.37,10.37,0,0,1-3.86,6.1A.2.2,0,0,1,706.19,86Z"/><path class="cls-4" d="M700.19,90.64c-.39,0-.77,0-1.16,0a12.78,12.78,0,0,1,2.34-25.45h0a12.78,12.78,0,0,1-1.18,25.5Zm0-25.26a12.45,12.45,0,1,0,1.12.05A10.61,10.61,0,0,0,700.22,65.38Zm0,23a10.46,10.46,0,0,1-6.24-2,.36.36,0,0,1-.13-.23.32.32,0,0,1,.07-.26h0a16.61,16.61,0,0,1,8.11-6,.34.34,0,0,1,.43.21,39.73,39.73,0,0,1,1.84,7.27.33.33,0,0,1-.21.37A10.24,10.24,0,0,1,700.2,88.39ZM694.13,86a.08.08,0,0,0,0,0,0,0,0,0,0,0,0A10.22,10.22,0,0,0,704,87.38s0,0,0,0a39.82,39.82,0,0,0-1.84-7.22,0,0,0,0,0-.06,0,16.29,16.29,0,0,0-8,6Zm12.26.26a.3.3,0,0,1-.13,0,.33.33,0,0,1-.21-.26h0a41.71,41.71,0,0,0-1.65-6.3.32.32,0,0,1,0-.3.37.37,0,0,1,.25-.15,17.59,17.59,0,0,1,5.56.38.34.34,0,0,1,.26.4,10.61,10.61,0,0,1-3.91,6.19A.36.36,0,0,1,706.39,86.29Zm0-.33s0,0,0,0a0,0,0,0,0,0,0,10.26,10.26,0,0,0,3.81-6,.08.08,0,0,0,0-.06,17.3,17.3,0,0,0-5.47-.37s0,0,0,0,0,0,0,0A42.08,42.08,0,0,1,706.34,86Zm-14.1-1.37a.32.32,0,0,1-.24-.11,10,10,0,0,1-2.33-6.57.34.34,0,0,1,.33-.34h0a39.89,39.89,0,0,0,10.46-1.51.34.34,0,0,1,.41.18c.19.4.39.84.59,1.29a.39.39,0,0,1,0,.28.34.34,0,0,1-.21.18,18.69,18.69,0,0,0-8.74,6.47.36.36,0,0,1-.26.13ZM690,77.86a0,0,0,0,0,0,0,9.63,9.63,0,0,0,2.24,6.37s.06,0,.07,0a19.08,19.08,0,0,1,8.88-6.56s0,0,0,0,0,0,0,0c-.2-.45-.39-.89-.59-1.29a0,0,0,0,0-.05,0A40.18,40.18,0,0,1,690,77.86Zm20.36-.2h-.07a19,19,0,0,0-6.51-.25.34.34,0,0,1-.36-.2c-.22-.53-.46-1.08-.72-1.62a.39.39,0,0,1,0-.26.37.37,0,0,1,.18-.19,17.14,17.14,0,0,0,5.23-3.61.34.34,0,0,1,.51,0h0a10.48,10.48,0,0,1,2.09,5.75.33.33,0,0,1-.11.28A.4.4,0,0,1,710.37,77.66Zm-4.14-.72a20.63,20.63,0,0,1,4.13.43h0s0,0,0,0a10.14,10.14,0,0,0-2-5.59h0s0,0,0,0,0,0,0,0A18,18,0,0,1,703,75.4l0,0c.26.58.5,1.13.72,1.66,0,0,0,0,0,0A16.75,16.75,0,0,1,706.23,76.94ZM690.35,75.6a.37.37,0,0,1-.27-.13.36.36,0,0,1-.06-.3,10.56,10.56,0,0,1,5.56-6.77.34.34,0,0,1,.41.09h0a35.78,35.78,0,0,1,3.64,5.36.32.32,0,0,1,0,.3.34.34,0,0,1-.22.2,37.26,37.26,0,0,1-9.06,1.25Zm5.38-6.94h0a10.24,10.24,0,0,0-5.41,6.59s0,0,0,0l0,0h0a37.17,37.17,0,0,0,9-1.24s0,0,0,0a0,0,0,0,0,0,0,36.57,36.57,0,0,0-3.61-5.33Zm6.11,4.79a.35.35,0,0,1-.3-.18A40.27,40.27,0,0,0,698.13,68a.33.33,0,0,1,0-.33.32.32,0,0,1,.25-.21,10.64,10.64,0,0,1,1.86-.17,10.47,10.47,0,0,1,6.53,2.27.33.33,0,0,1,.12.25.31.31,0,0,1-.09.26h0A15.38,15.38,0,0,1,702,73.42.35.35,0,0,1,701.84,73.45Zm-1.64-5.83a11.07,11.07,0,0,0-1.81.16s0,0,0,0a.05.05,0,0,0,0,0,42,42,0,0,1,3.43,5.27,0,0,0,0,0,.06,0,15.07,15.07,0,0,0,4.69-3.24h0a.1.1,0,0,0,0,0,.06.06,0,0,0,0,0A10.17,10.17,0,0,0,700.2,67.62Z"/><text class="cls-5" transform="translate(108.72 85.15)">VISITE</text><line class="cls-6" x1="254.44" y1="103.03" x2="110.38" y2="103.03"/></g></g></svg>