<svg id="Capa_1" data-name="Capa 1" xmlns="http://www.w3.org/2000/svg" xmlns:xlink="http://www.w3.org/1999/xlink" viewBox="0 0 1280 380"><defs><style>.cls-1{fill:none;}.cls-2{fill:#306088;}.cls-3{fill:#457eb9;}.cls-4{font-size:56.69px;font-family:Raleway-Bold, Raleway;}.cls-4,.cls-7,.cls-8{fill:#fff;}.cls-5{font-weight:700;}.cls-6{font-family:Raleway-Light, Raleway;}.cls-8{opacity:0.2;}.cls-9{clip-path:url(#clip-path);}</style><clipPath id="clip-path"><path class="cls-1" d="M1019.18,41.77q-1.47,2.53-2.72,4.85a9.48,9.48,0,0,1-3.78,3.78,6,6,0,0,0-1.66,1.77q-3.8,4.72-7.16,9.61T997,71.58a8.2,8.2,0,0,0-2.08,3.21q-2.15,3-4.13,6t-4.38,6.08q-2.75,4.73-5.65,9.36t-6.14,9.49L973,108.58a27.65,27.65,0,0,1-1.71,2.58l-5.07,8q-2.45,3.85-5.14,7.75c-.12.21-.23.32-.31.35s-.19.14-.31.35a24.42,24.42,0,0,1-4.44,9.19,71.49,71.49,0,0,0-5.67,8.42l-.72,1.26a4.1,4.1,0,0,0-.48,1.19,6.08,6.08,0,0,1-.71,2.33,4,4,0,0,1-1.94,1.56q-1.4.63-2.92,3.43t-1.2,4.07a20.25,20.25,0,0,0,2.45,5,13.12,13.12,0,0,1,2.14,4.84c.38.8.72,1.47,1,2a7.34,7.34,0,0,1,.73,1.83q-.35,2.77,2.33,5.05a7.64,7.64,0,0,0,.72.76,1.66,1.66,0,0,1,.47.82,10.13,10.13,0,0,0,2.18,5.5,10.92,10.92,0,0,1,2.24,5.75,7.42,7.42,0,0,0,1.83,4.11q1.43,1.52,2.94,3.29.88,1.39,1.91,2.88a9.29,9.29,0,0,1,1.42,3,31.72,31.72,0,0,0,3.94,8.28q2.54,3.8,4.86,7.78a27.62,27.62,0,0,1,3.18,6.32,11.12,11.12,0,0,1-.1,6.88q.88,1.39,1.9,1.27t2.32-.19a13.14,13.14,0,0,1,1.58.54c.68.27,1.07.58,1.15.92a9,9,0,0,0,2.07,5.26,19.19,19.19,0,0,1,3,5q1.18,2.66,2.26,4.94a20.42,20.42,0,0,0,3.2,4.7,2.71,2.71,0,0,1,.81,1.68,16.82,16.82,0,0,0,.39,2,39.32,39.32,0,0,0,4.43,10.72,65.41,65.41,0,0,0,7,9.53l4.13,6q2.07,3,4.45,6.14a4.63,4.63,0,0,1,.7,1.71c0,.88.48,1.22,1.31,1s1.18.15,1.06,1.08a4.88,4.88,0,0,1-2.81.84,10.47,10.47,0,0,1-2.88-.48,48.05,48.05,0,0,1-11.94-6.13A79.6,79.6,0,0,1,990.63,281q-3.19-3.23-6.39-6.59t-6.15-6.65q-3.87-3.86-7.39-7.94T964,251.73a108.1,108.1,0,0,1-6.6-9.48q-3.1-5-6.36-9.55-2.51-3.66-4.94-7.08t-4.69-7.15q-2.2-3.47-4.11-6.89t-3.86-7q-1.25-1.83-3.91-5.06a21.59,21.59,0,0,0-5.14-4.75,6.42,6.42,0,0,1-.7,1.92,3.64,3.64,0,0,0-.51,1.61,25,25,0,0,1-1.4,3.31,11.64,11.64,0,0,1-2.26,3,28.15,28.15,0,0,0-5,8.26,6.53,6.53,0,0,1-1.86,3.56,19.75,19.75,0,0,1-2.73,2.17q-.18,1.4-.32,2.91a6.75,6.75,0,0,1-.87,2.77q-1.28,3.28-2.79,6.63t-3.28,6.74q-2.72,6.87-5.79,14t-6,14q-1.33,4.1-2.78,7.7t-3.09,7.5a4.53,4.53,0,0,0-.51,1.61,2.2,2.2,0,0,1-.58,1.35,5.78,5.78,0,0,0-2.61,2.68q-.76,1.67-1.67,3.24a64.44,64.44,0,0,0-3.45,8.67,35.09,35.09,0,0,1-3.82,8.24,12.3,12.3,0,0,0-1,4.17,25.2,25.2,0,0,1-.73,4.36q-1.13,4.86-2.08,9.95a29.53,29.53,0,0,1-3.5,9.5,9.6,9.6,0,0,0-.63,2.72,16.16,16.16,0,0,1-.56,3,13,13,0,0,0,.39,5.69,11.24,11.24,0,0,1,.33,5.44,2.88,2.88,0,0,0-.54,2,33.62,33.62,0,0,0,.95,5.82q.73,2.9,1.32,6.26l-.24,1.14a15.59,15.59,0,0,1-4.32.56q-1.85-.07-4-2.48A40.7,40.7,0,0,1,850,352.32a52.74,52.74,0,0,1-3.31-14.64q-.25-7.2,0-14.12a127.52,127.52,0,0,1,1.28-14.18,71.57,71.57,0,0,1,2.62-12.5,121.29,121.29,0,0,0,3.12-12.62q.18-1.38.47-2.81a15.47,15.47,0,0,1,1-2.94,80.33,80.33,0,0,1,2.51-7.76q1.43-3.72,2.88-7.31a14.16,14.16,0,0,0,.91-2.65l.48-2.27a24.22,24.22,0,0,0,1.09-3c.2-.67.45-1.36.72-2.05h0a75,75,0,0,1,2.84-8.85,73.84,73.84,0,0,1,3.43-7.31h0q3.15-8.33,6.58-16.6t6.76-16.92c1.7.47,2.73.75,3.1.83a2,2,0,0,0,1-1.86,9.72,9.72,0,0,0-1.14-2.94q2.67-6.06,5.47-12.15t5.65-12.46c.28-1,4.69-9.53,5.09-10l2.56-4.42a3.73,3.73,0,0,0,.21-4.37q-5.29-9.44-10.26-18.7t-10.13-18.19q-3.09-6-6.76-11.63t-6.94-11.31q-1.82-3-3.46-5.87t-3.7-5.8q-2.14-3.23-4.05-6.65A28.16,28.16,0,0,0,855.13,72q-2.93-2.22-1.29-6.14t5.3-3a16.46,16.46,0,0,0,1.35-2l.92-1.58A5.43,5.43,0,0,1,866,56.64a10.38,10.38,0,0,0,3.68-.53,32.69,32.69,0,0,0,3.24-1.23q2.59-1.19,4.15-.24t4.11,2.73a2.06,2.06,0,0,0,1.43.45q5.19-.23,7.6,3.07t4.53,6.53q2.87,4.13,5.2,8.12l4.64,8,.26,1a38.05,38.05,0,0,0,4.79,11.19q3.25,5.11,6.14,10.3l2.77,5.23q1.26,2.38,2.39,4.79.5,1,.79,1.55a11.62,11.62,0,0,0,.72,1.3q1.05,1.08,3.14-.53a15.38,15.38,0,0,0,3.23-3.25q.48-1.19.9-2.11a10,10,0,0,1,1.22-1.93q3.27-5.67,6.49-11.07A81.56,81.56,0,0,0,943,88.62a43.4,43.4,0,0,1,2.89-6.12,68,68,0,0,1,3.78-5.8l11.05-17.62q5.62-9,11.86-17.56,2.62-4.17,5.28-8.21t5.41-7.71a29.13,29.13,0,0,1,6.2-6.68,13.51,13.51,0,0,1,3.61-1.86,4.72,4.72,0,0,1,4,.74c1.36.55,2.34.39,2.91-.47s1.6-1.12,3.09-.78l.42,1.64a6.31,6.31,0,0,1,0,2.27q1.61.13,3.1.3c1,.11,2,.2,3.1.29a12,12,0,0,1,2.76.51c.76.26,1.13,1,1.1,2.27a2.57,2.57,0,0,0,.94,1.65,7.68,7.68,0,0,1,3.38,4q.88,2.47,2.09,5.12A9.48,9.48,0,0,1,1019.18,41.77Z"/></clipPath></defs><title>Banner prueba</title><rect class="cls-2" x="-47" y="346.5" width="1348.5" height="33.5"/><rect class="cls-3" x="-20.5" y="-36" width="1322" height="391.69"/><text class="cls-4" transform="translate(493.23 176.18)"><tspan class="cls-5">LA BELLEZA</tspan><tspan class="cls-6"><tspan x="0" y="68.02">ESTÁ EN LA</tspan></tspan></text><polygon class="cls-7" points="289.61 142.45 313.14 142.45 313.14 148.56 296.43 148.56 296.43 154.89 311.14 154.89 311.14 160.99 296.43 160.99 296.43 167.55 313.37 167.55 313.37 173.66 289.61 173.66 289.61 142.45"/><polygon class="cls-7" points="386.2 142.45 393.02 142.45 393.02 148.56 393.02 154.89 393.02 160.99 393.02 167.55 393.02 173.66 386.2 173.66 386.2 142.45"/><path class="cls-7" d="M314.3,158.14v-.09c0-8.87,7-16.14,16.63-16.14s16.54,7.18,16.54,16.05v.09c0,8.87-7,16.14-16.63,16.14s-16.54-7.18-16.54-16m26,0v-.09a9.48,9.48,0,0,0-9.45-9.81c-5.53,0-9.36,4.37-9.36,9.72v.09a9.48,9.48,0,0,0,9.45,9.81c5.53,0,9.36-4.37,9.36-9.72"/><polygon class="cls-7" points="350.46 142.45 357.86 142.45 366.07 155.65 374.27 142.45 381.67 142.45 381.67 173.66 374.85 173.66 374.85 153.28 366.07 166.61 365.89 166.61 357.19 153.42 357.19 173.66 350.46 173.66 350.46 142.45"/><polygon class="cls-7" points="396.68 142.45 403.01 142.45 417.63 161.66 417.63 142.45 424.41 142.45 424.41 173.66 418.57 173.66 403.45 153.82 403.45 173.66 396.68 173.66 396.68 142.45"/><path class="cls-7" d="M425.7,145.72v0a3.25,3.25,0,1,1,6.49,0v0a3.25,3.25,0,1,1-6.49,0m6.12,0v0a2.85,2.85,0,0,0-2.87-2.89,2.88,2.88,0,0,0-2.87,2.91v0a2.87,2.87,0,1,0,5.74,0M427.68,144h1.49c.73,0,1.27.35,1.27,1a1,1,0,0,1-.76,1l.87,1.25h-.76l-.78-1.14h-.69v1.14h-.63Zm1.44,1.64c.43,0,.67-.22.67-.54s-.24-.54-.67-.54h-.8v1.08Z"/><path class="cls-7" d="M294.84,125.51a2.36,2.36,0,0,1-.2,1.79c-.24.42-.47.82-.67,1.2a2.35,2.35,0,0,1-.94.94,1.48,1.48,0,0,0-.41.44q-.94,1.17-1.78,2.38t-1.7,2.43a2,2,0,0,0-.52.8q-.53.73-1,1.49c-.33.51-.69,1-1.09,1.51q-.68,1.17-1.4,2.32t-1.52,2.35l-.41.71a6.53,6.53,0,0,1-.43.64l-1.26,2q-.61,1-1.27,1.92c0,.05-.05.08-.08.09s0,0-.08.09a6,6,0,0,1-1.1,2.28,18.12,18.12,0,0,0-1.41,2.09l-.18.31a.94.94,0,0,0-.12.3,1.54,1.54,0,0,1-.18.58,1,1,0,0,1-.48.39,1.9,1.9,0,0,0-.72.85,1.64,1.64,0,0,0-.3,1,5,5,0,0,0,.61,1.25,3.26,3.26,0,0,1,.53,1.2c.09.2.18.37.26.5a1.77,1.77,0,0,1,.18.46,1.38,1.38,0,0,0,.58,1.25l.18.19a.41.41,0,0,1,.12.21,2.51,2.51,0,0,0,.54,1.36,2.69,2.69,0,0,1,.56,1.43,1.84,1.84,0,0,0,.45,1q.35.38.73.82c.15.23.3.47.47.71a2.32,2.32,0,0,1,.35.75,7.86,7.86,0,0,0,1,2.05q.63.95,1.21,1.93a6.82,6.82,0,0,1,.79,1.57,2.76,2.76,0,0,1,0,1.71c.14.23.3.33.47.32l.58,0a3,3,0,0,1,.39.14c.17.07.26.14.29.23a2.24,2.24,0,0,0,.51,1.31,4.73,4.73,0,0,1,.75,1.24c.2.44.38.85.56,1.23a5,5,0,0,0,.8,1.16.68.68,0,0,1,.2.42,4.13,4.13,0,0,0,.1.51,9.75,9.75,0,0,0,1.1,2.66,16,16,0,0,0,1.74,2.37l1,1.48q.51.74,1.1,1.52a1.17,1.17,0,0,1,.17.43c0,.22.12.3.32.25s.29,0,.26.27a1.23,1.23,0,0,1-.7.21,2.54,2.54,0,0,1-.72-.12,11.86,11.86,0,0,1-3-1.52,19.49,19.49,0,0,1-2.53-2.16L286,185q-.8-.83-1.53-1.65-1-1-1.83-2t-1.65-2a26.59,26.59,0,0,1-1.64-2.35q-.77-1.24-1.58-2.37-.62-.91-1.23-1.76t-1.16-1.77q-.55-.86-1-1.71l-1-1.73q-.31-.46-1-1.26a5.4,5.4,0,0,0-1.27-1.18,1.62,1.62,0,0,1-.17.48.9.9,0,0,0-.13.4,6.09,6.09,0,0,1-.35.82,2.9,2.9,0,0,1-.56.74,7,7,0,0,0-1.24,2.05,1.63,1.63,0,0,1-.46.88,5,5,0,0,1-.68.54c0,.23-.06.47-.08.72a1.64,1.64,0,0,1-.22.69c-.21.54-.44,1.09-.69,1.65s-.52,1.11-.81,1.67q-.67,1.71-1.44,3.47l-1.5,3.48q-.33,1-.69,1.91c-.24.59-.5,1.21-.77,1.86a1.14,1.14,0,0,0-.13.4.56.56,0,0,1-.14.34,1.43,1.43,0,0,0-.65.66q-.19.41-.41.81a16,16,0,0,0-.85,2.15,8.75,8.75,0,0,1-.95,2,3,3,0,0,0-.26,1,6.24,6.24,0,0,1-.18,1.08q-.28,1.21-.52,2.47a7.35,7.35,0,0,1-.87,2.36,2.39,2.39,0,0,0-.16.67,4.1,4.1,0,0,1-.14.74,3.19,3.19,0,0,0,.09,1.41,2.78,2.78,0,0,1,.08,1.35.73.73,0,0,0-.13.5,8.16,8.16,0,0,0,.24,1.44c.12.48.23,1,.33,1.55l-.06.28a3.87,3.87,0,0,1-1.07.14,1.55,1.55,0,0,1-1-.61,10.11,10.11,0,0,1-1.92-3.09,13.08,13.08,0,0,1-.82-3.63q-.06-1.79,0-3.5a31.65,31.65,0,0,1,.32-3.52,17.84,17.84,0,0,1,.65-3.1,30.72,30.72,0,0,0,.77-3.13c0-.23.07-.46.12-.7a3.91,3.91,0,0,1,.24-.73,19.86,19.86,0,0,1,.62-1.93q.35-.92.72-1.81a3.63,3.63,0,0,0,.22-.66l.12-.56a6,6,0,0,0,.27-.74,6,6,0,0,1,.27-.74c.65.15,1,.31,1.1.49s0,.49-.35.92l-.25.43a.88.88,0,0,0-.13.4,3,3,0,0,1-.28,1.1c-.15.33-.33.7-.54,1.1a1.07,1.07,0,0,0-.12.43,1,1,0,0,1-.23.52,36.6,36.6,0,0,1-1.88,4.95,1.12,1.12,0,0,0,0,.48,1,1,0,0,1,0,.48.38.38,0,0,0-.06.28.38.38,0,0,1-.06.28,4.31,4.31,0,0,0-.47,2.26,5.9,5.9,0,0,1-.25,1.7,12.45,12.45,0,0,0-.38,1.73q0,.8.05,1.62a3.71,3.71,0,0,0,.51,1.64c.05-.15.1-.28.16-.41a1.12,1.12,0,0,0,.1-.39c.1-.47.18-.91.25-1.33s.11-.83.14-1.24A32,32,0,0,1,254,193a19.84,19.84,0,0,1,1.25-3.82,8,8,0,0,0,.27-1.14,8,8,0,0,1,.27-1.14,1.53,1.53,0,0,0,.14-.34c0-.12.09-.28.17-.48a2.35,2.35,0,0,1,.41.2,1.59,1.59,0,0,0,.47.18,17.54,17.54,0,0,1-.69,2,4.13,4.13,0,0,0-.27,2.14l.3-.08q.56-1.13,1.09-2.29a5.24,5.24,0,0,0,.46-2.47,1.36,1.36,0,0,1,.12-.56,8.44,8.44,0,0,0,1.42-2.51,22.44,22.44,0,0,1,1.13-2.63,2.15,2.15,0,0,0,.35-.68,3.44,3.44,0,0,1,.33-.75c-.27,0-.43-.1-.49-.24a1.78,1.78,0,0,1-.12-.47l-.07-.51a.48.48,0,0,0-.33-.38,2.54,2.54,0,0,0-.46.41,3.83,3.83,0,0,1-.39.4.18.18,0,0,1-.14,0l.43-1.43c.15-.48.29-.94.45-1.37l.25-.06c.08.16.15.31.21.45s.13.31.23.51a1.33,1.33,0,0,0,.62-.49,3.3,3.3,0,0,0,.35-.69c.09-.25.19-.5.29-.78a1.71,1.71,0,0,1,.48-.69,1,1,0,0,1,0,1,3.11,3.11,0,0,0-.45.71c-.07.24-.15.51-.23.8s-.18.58-.28.87c.35,0,.56-.06.64-.2a4,4,0,0,0,.24-.49,10.83,10.83,0,0,1,.65-1.44c.25-.46.5-.93.73-1.39a1,1,0,0,1,.31-.34,3.71,3.71,0,0,0,.38-.3,11.43,11.43,0,0,1-1-1l.31-.21a.78.78,0,0,1,.26-.13,2.67,2.67,0,0,1,.7-.21,3.78,3.78,0,0,0,.82-.24,1.16,1.16,0,0,0,.61-1.22l-.55-.09-.61-.08a.93.93,0,0,1,.37-.36,3.19,3.19,0,0,0,.42-.27.77.77,0,0,0,.26-.37.91.91,0,0,0,0-.53,2.1,2.1,0,0,1,.67-.07.65.65,0,0,0,.51-.16,1,1,0,0,0,.3-.48,1.43,1.43,0,0,1,.35-.56q.35-1,.72-1.79c.25-.55.52-1.11.82-1.68a2.16,2.16,0,0,0,.28-.71c0-.21-.09-.44-.37-.68a1,1,0,0,1-.44-.56,2.61,2.61,0,0,0-.33-.66,4,4,0,0,0-.9-1l-.27-1.07a.48.48,0,0,0-.53.24c-.09.18-.19.37-.31.58a1.27,1.27,0,0,1-.25.3,1.22,1.22,0,0,0-.25.3,4.23,4.23,0,0,1-.5-.68,1.12,1.12,0,0,1,.08-1.22l.63-1.1a.93.93,0,0,0,.05-1.09q-1.31-2.34-2.55-4.64t-2.51-4.51q-.77-1.48-1.68-2.89t-1.72-2.81l-.86-1.45q-.41-.7-.92-1.44t-1-1.65a7.05,7.05,0,0,0-1.17-1.54,1.16,1.16,0,0,1-.32-1.52,1,1,0,0,1,1.32-.74,4.15,4.15,0,0,0,.33-.49l.23-.39a1.35,1.35,0,0,1,1.13-.69,2.56,2.56,0,0,0,.91-.13,8.1,8.1,0,0,0,.8-.3,1.07,1.07,0,0,1,1-.06c.26.16.6.38,1,.68a.51.51,0,0,0,.36.11,2.05,2.05,0,0,1,1.88.76q.6.82,1.13,1.62c.47.68.91,1.35,1.29,2l1.15,2,.06.25a9.42,9.42,0,0,0,1.19,2.78q.81,1.27,1.52,2.56l.69,1.3q.31.59.59,1.19l.2.38a2.82,2.82,0,0,0,.18.32c.17.18.43.14.78-.13a3.8,3.8,0,0,0,.8-.81c.08-.2.15-.37.23-.52a2.39,2.39,0,0,1,.3-.48q.81-1.41,1.61-2.75a20.13,20.13,0,0,0,1.39-2.83,10.77,10.77,0,0,1,.72-1.52,16.63,16.63,0,0,1,.94-1.44l2.74-4.37q1.39-2.23,2.94-4.36.65-1,1.31-2t1.34-1.91a7.25,7.25,0,0,1,1.54-1.66,3.3,3.3,0,0,1,.9-.46,1.16,1.16,0,0,1,1,.18c.34.14.58.1.72-.12s.4-.28.77-.19l.1.41a1.56,1.56,0,0,1,0,.56l.77.07.77.07a3,3,0,0,1,.68.13c.19.06.28.25.27.56a.63.63,0,0,0,.23.41,1.91,1.91,0,0,1,.84,1c.15.41.32.83.52,1.27m-39.75,66.78a.39.39,0,0,1,.18-.32c-.12-.15-.21-.21-.25-.2a.37.37,0,0,1-.13.13.3.3,0,0,0-.11.2s0,.07.11.07a.29.29,0,0,1,.19.12m2-12.92q-1,.12-.62-.91a2.73,2.73,0,0,1,.32-.82c.18-.49.33-.76.45-.81a2.54,2.54,0,0,1,1.1.22,2.52,2.52,0,0,1-.17,1,8,8,0,0,1-.5,1,.85.85,0,0,1-.56.34m.55,2.67a1.16,1.16,0,0,1-.21-.68,4.62,4.62,0,0,1,.56-1,.87.87,0,0,1,.11.94c-.16.24-.31.49-.46.75m4.07-14.33a.49.49,0,0,0,.24-.46,2.38,2.38,0,0,0-.28-.73q.66-1.5,1.36-3t1.4-3.09a1.39,1.39,0,0,1,.26-.53c.1-.11.34-.11.72,0-.18.31-.36.64-.54,1s-.36.66-.54,1l.36.14.3.16a.61.61,0,0,1-.53.74q-.89.09-.39.77a.48.48,0,0,1,.05.72c-.13.34-.26.65-.38.93a8.86,8.86,0,0,1-.42.81.91.91,0,0,1-.2.25,1,1,0,0,0-.2.25q-.56,1.41-1.15,2.8l-1.21,2.81c-.22.5-.44,1-.65,1.43a10,10,0,0,0-.56,1.54q-.19.78-.52.9a2,2,0,0,1-1.21-.26q.78-2.07,1.63-4.12t1.68-4.2l.77.21m-1.91,11.37a1,1,0,0,1,.05,1,4.59,4.59,0,0,1-.64.83c.09-.33.18-.65.28-.94l.3-.88m1.72,1a.3.3,0,0,0,.19-.15.72.72,0,0,1,.24-.22l-.27-.17a.26.26,0,0,0-.18-.06.23.23,0,0,0-.18.31c0,.05,0,.12,0,.19s.11.1.15.09m-.46-6.63c-.05,0-.09,0-.11,0a.18.18,0,0,1-.11,0,10.19,10.19,0,0,1,.86-1.22,1.4,1.4,0,0,1-.22.69l-.43.61m-.51-2.74a.91.91,0,0,1,.11-.23c-.1-.06-.16-.11-.17-.16a.61.61,0,0,0-.1.26.68.68,0,0,1-.1.26l.15.09a1,1,0,0,0,.11-.23m1.21,1.3a.06.06,0,0,1,0,.08Zm.85-1.95a3.18,3.18,0,0,1-.36,1.09l-.49.86a2.7,2.7,0,0,1,0-1.08,1.47,1.47,0,0,1,.8-.87m.13-.64a3.8,3.8,0,0,0,.3-.61s.12,0,.23.14a1.9,1.9,0,0,0-.3.61Zm.91-1.16c-.18-.36-.25-.58-.21-.68a2.14,2.14,0,0,1,.55-.54,2,2,0,0,1-.17.61,2,2,0,0,0-.17.61M264,167l-.08,0,.06,0Zm-.06,0,0-.06.08,0Zm0-.07a1.45,1.45,0,0,1,0-.87,1.11,1.11,0,0,1,.73-.58Zm1.13-2.09A1.59,1.59,0,0,1,265,164a7.08,7.08,0,0,1,.78-1.17l.15.09q-.21.46-.38.93c-.11.32-.25.68-.41,1.07m1.38-.48a.54.54,0,0,1,.56.66c-.26,0-.41,0-.46-.15a1.51,1.51,0,0,1-.1-.51m1-2c.2.44.21.75,0,.92a8.07,8.07,0,0,1-.72.65c.13-.3.24-.57.33-.82a4.72,4.72,0,0,1,.35-.76m-.88-.38c-.21-.3-.24-.53-.11-.68a1.3,1.3,0,0,1,.63-.33.87.87,0,0,0-.28.44,2.38,2.38,0,0,1-.25.56m12.14,9.15q.86,0,.61-.69l-.33-.79a6.75,6.75,0,0,0-.41-.83,3.47,3.47,0,0,1-.35-.74c-.09-.27-.19-.54-.31-.82a4.85,4.85,0,0,0-.39-.77A1.6,1.6,0,0,0,277,166a.41.41,0,0,1-.19-.25l-.07-.28a4.41,4.41,0,0,1-.72-1.29,5.15,5.15,0,0,1-.34-.45c-.1-.15-.22-.3-.34-.45s-.28-.47-.41-.73-.27-.52-.43-.79a.85.85,0,0,0-.35.15,4,4,0,0,0,.18,1.73,5.35,5.35,0,0,0,.77,1.51c.28.42.55.83.8,1.23a9.94,9.94,0,0,1,.69,1.33,2.75,2.75,0,0,0,.64.71,1.88,1.88,0,0,1,1.27,1.68l.14.56a3.09,3.09,0,0,0,.21.55m-.88-28c.27-.29.41-.49.4-.6a2.23,2.23,0,0,0-.55-.76,3.7,3.7,0,0,0-.76.86q-.56.88-1.13,1.86l-1.07,1.84c-.24.42-.44.79-.6,1.12s-.34.68-.55,1-.12.46-.16.64.07.36.33.52a1.87,1.87,0,0,0,.69-.61,6.29,6.29,0,0,0,.45-.82l.86-1.49c.06-.1.14-.23.23-.36a1.73,1.73,0,0,0,.22-.42,4,4,0,0,1,.63-1.5c.3-.43.64-.87,1-1.32m-3.25,9.31a2.22,2.22,0,0,0,.56-.54.87.87,0,0,0,0-.68,6.6,6.6,0,0,0-.45.55,2.35,2.35,0,0,0-.14.67M280.8,174c0-.32,0-.55-.17-.66a2.84,2.84,0,0,0-.53-.3,3.53,3.53,0,0,0,.1.64c.05.21.25.32.6.32m5.9,9.39q-1.18-1.51-2.32-3a12.27,12.27,0,0,0-2.76-2.64,5.4,5.4,0,0,1,.64,1.74,2.58,2.58,0,0,0,1,1.58,1.54,1.54,0,0,1,.6.65,1.85,1.85,0,0,0,.53.67,17.2,17.2,0,0,1,1.79,2A7.13,7.13,0,0,0,288.1,186a4.87,4.87,0,0,1,.6.55l.53.56a5.18,5.18,0,0,1,.64.61,1.94,1.94,0,0,0,.95.53,1,1,0,0,1-.22-.38.66.66,0,0,0-.13-.26q-.44-.42-.85-.79a5.23,5.23,0,0,1-.82-.93,4.47,4.47,0,0,1-1-1.36,2.52,2.52,0,0,0-1.12-1.19m-6.55-44.17a.68.68,0,0,0,0-.3,1.17,1.17,0,0,1,0-.36,3.17,3.17,0,0,0-1.86,2.94,2,2,0,0,0,.58-.55q.35-.42.69-.88c.23-.3.44-.59.63-.86"/><path class="cls-8" d="M1028,41.81q-1.47,2.53-2.72,4.86a9.5,9.5,0,0,1-3.78,3.78,6,6,0,0,0-1.66,1.77q-3.81,4.73-7.17,9.63t-6.87,9.82a8.21,8.21,0,0,0-2.08,3.22q-2.15,3-4.14,6T995.21,87q-2.75,4.73-5.66,9.37t-6.15,9.5l-1.65,2.85A27.69,27.69,0,0,1,980,111.3l-5.08,8q-2.45,3.85-5.15,7.76c-.12.21-.23.33-.31.35s-.19.14-.31.35a24.46,24.46,0,0,1-4.44,9.2,71.6,71.6,0,0,0-5.68,8.43l-.72,1.26a4.1,4.1,0,0,0-.48,1.19,6.08,6.08,0,0,1-.71,2.33,4,4,0,0,1-1.95,1.57q-1.4.63-2.92,3.44t-1.2,4.08a20.28,20.28,0,0,0,2.46,5,13.14,13.14,0,0,1,2.15,4.84c.38.8.73,1.47,1,2a7.35,7.35,0,0,1,.73,1.84q-.35,2.78,2.33,5.06a7.65,7.65,0,0,0,.72.76,1.67,1.67,0,0,1,.47.82,10.15,10.15,0,0,0,2.18,5.5,10.93,10.93,0,0,1,2.25,5.76,7.43,7.43,0,0,0,1.83,4.11q1.43,1.52,2.94,3.29.88,1.39,1.91,2.88a9.31,9.31,0,0,1,1.42,3,31.77,31.77,0,0,0,3.94,8.29q2.54,3.81,4.87,7.79a27.66,27.66,0,0,1,3.18,6.33,11.14,11.14,0,0,1-.1,6.89q.88,1.39,1.9,1.27t2.32-.19a13.16,13.16,0,0,1,1.59.54c.68.27,1.07.58,1.15.92a9,9,0,0,0,2.08,5.26,19.22,19.22,0,0,1,3,5q1.18,2.66,2.26,4.95A20.45,20.45,0,0,0,1003,256a2.71,2.71,0,0,1,.81,1.68,16.84,16.84,0,0,0,.39,2.05,39.37,39.37,0,0,0,4.43,10.74,65.51,65.51,0,0,0,7,9.54l4.14,6q2.07,3,4.45,6.15a4.64,4.64,0,0,1,.7,1.71c0,.88.48,1.22,1.31,1s1.18.15,1.06,1.08a4.89,4.89,0,0,1-2.81.85,10.48,10.48,0,0,1-2.89-.48,48.12,48.12,0,0,1-12-6.14,79.72,79.72,0,0,1-10.23-8.73q-3.19-3.24-6.4-6.6t-6.16-6.66q-3.87-3.87-7.4-8t-6.66-8.14a108.26,108.26,0,0,1-6.61-9.49q-3.11-5-6.37-9.57-2.51-3.67-5-7.09t-4.7-7.16q-2.2-3.48-4.12-6.9t-3.87-7q-1.25-1.83-3.91-5.07a21.62,21.62,0,0,0-5.15-4.75,6.43,6.43,0,0,1-.7,1.92,3.65,3.65,0,0,0-.51,1.61,25,25,0,0,1-1.4,3.31,11.66,11.66,0,0,1-2.26,3,28.19,28.19,0,0,0-5,8.27,6.54,6.54,0,0,1-1.86,3.56,19.78,19.78,0,0,1-2.73,2.17q-.18,1.4-.32,2.91a6.76,6.76,0,0,1-.87,2.78q-1.28,3.29-2.79,6.63T911.38,238q-2.73,6.88-5.8,14t-6,14q-1.33,4.11-2.78,7.71t-3.09,7.51a4.54,4.54,0,0,0-.51,1.61,2.21,2.21,0,0,1-.58,1.35,5.78,5.78,0,0,0-2.61,2.69q-.76,1.67-1.67,3.25a64.53,64.53,0,0,0-3.45,8.68,35.14,35.14,0,0,1-3.83,8.25,12.31,12.31,0,0,0-1,4.17,25.24,25.24,0,0,1-.73,4.36q-1.13,4.87-2.09,10a29.58,29.58,0,0,1-3.5,9.51,9.62,9.62,0,0,0-.63,2.72,16.19,16.19,0,0,1-.56,3,13,13,0,0,0,.39,5.7,11.25,11.25,0,0,1,.33,5.45,2.89,2.89,0,0,0-.54,2,33.67,33.67,0,0,0,.95,5.83q.74,2.91,1.32,6.27l-.24,1.14a15.61,15.61,0,0,1-4.33.56q-1.86-.07-4-2.48a40.76,40.76,0,0,1-7.75-12.46,52.82,52.82,0,0,1-3.32-14.66q-.25-7.21,0-14.14a127.7,127.7,0,0,1,1.28-14.2,71.67,71.67,0,0,1,2.62-12.52,121.46,121.46,0,0,0,3.12-12.64q.18-1.39.47-2.81a15.49,15.49,0,0,1,1-2.94,80.44,80.44,0,0,1,2.51-7.77q1.43-3.72,2.89-7.32a14.18,14.18,0,0,0,.91-2.65l.48-2.28a24.25,24.25,0,0,0,1.09-3c.2-.67.45-1.36.72-2.05h0a75.14,75.14,0,0,1,2.85-8.86,74,74,0,0,1,3.43-7.32h0q3.15-8.34,6.59-16.63t6.77-16.94c1.7.47,2.73.75,3.11.83a2,2,0,0,0,1-1.87,9.73,9.73,0,0,0-1.14-2.94q2.67-6.07,5.48-12.17t5.66-12.48c.28-1,4.69-9.55,5.1-10l2.57-4.43a3.73,3.73,0,0,0,.21-4.37q-5.3-9.45-10.27-18.72T893.4,119.68q-3.09-6-6.77-11.65T879.69,96.7q-1.83-3.05-3.46-5.88T872.52,85q-2.14-3.23-4.06-6.66a28.2,28.2,0,0,0-4.74-6.23q-2.93-2.23-1.29-6.15t5.31-3a16.49,16.49,0,0,0,1.35-2l.92-1.58a5.44,5.44,0,0,1,4.56-2.78,10.4,10.4,0,0,0,3.69-.53,32.73,32.73,0,0,0,3.24-1.23q2.59-1.19,4.15-.24t4.12,2.73a2.07,2.07,0,0,0,1.43.45q5.2-.23,7.61,3.07t4.54,6.54q2.88,4.13,5.2,8.13l4.65,8,.26,1a38.11,38.11,0,0,0,4.8,11.21q3.26,5.11,6.15,10.32l2.77,5.24q1.26,2.38,2.39,4.79.5,1,.79,1.55a11.64,11.64,0,0,0,.73,1.3q1.06,1.08,3.14-.53a15.41,15.41,0,0,0,3.24-3.25q.48-1.19.91-2.12a10,10,0,0,1,1.22-1.93q3.27-5.68,6.5-11.09a81.68,81.68,0,0,0,5.63-11.42,43.47,43.47,0,0,1,2.9-6.13,68.06,68.06,0,0,1,3.79-5.81l11.07-17.65q5.63-9,11.88-17.59,2.63-4.18,5.29-8.22T992,25.6a29.17,29.17,0,0,1,6.21-6.69,13.53,13.53,0,0,1,3.61-1.86,4.73,4.73,0,0,1,4,.74c1.37.55,2.34.39,2.91-.47s1.6-1.12,3.1-.78l.42,1.65a6.32,6.32,0,0,1,0,2.27q1.61.13,3.1.3c1,.11,2,.2,3.1.29a12.06,12.06,0,0,1,2.76.51c.76.26,1.13,1,1.1,2.28a2.57,2.57,0,0,0,.94,1.65,7.69,7.69,0,0,1,3.38,4q.88,2.47,2.09,5.13A9.49,9.49,0,0,1,1028,41.81Z"/><g class="cls-9"><image width="4729" height="7094" transform="matrix(0.16, 0.03, -0.03, 0.16, 624.26, -395)" xlink:href="Links/Modelo_campaña_baja.jpg"/></g></svg>