<svg xmlns="http://www.w3.org/2000/svg" viewBox="0 0 288 36.72"><defs><style>.cls-1{fill:#4478b8;}</style></defs><title>merz azul</title><g id="Capa_2" data-name="Capa 2"><g id="Capa_1-2" data-name="Capa 1"><path class="cls-1" d="M176.74,1.76l-.06-.69c1.95.17,3.84.29,5.66.38s3.63.18,5.42.31l.07.69q-3-.12-5.72-.31l-5.37-.38M146.49.2q3.31.11,6.45.08c.09.13.06.29-.07.49-.84.11-1.94.19-3.29.23s-2.7,0-4.07-.05a37,37,0,0,1-3.69-.36A8.6,8.6,0,0,1,139.57,0l6.92.2m8.27.3s0-.14-.09-.27c3.5.12,6.89.24,10.19.37s6.7.26,10.19.38a.31.31,0,0,1,0,.35c-.07.09-.06.2,0,.34-3.39,0-6.77-.08-10.11-.28S158.26,1,154.84.77c-.09-.13-.12-.23-.08-.27M125.09,13.72c-.77-.09-1.63-.14-2.56-.16.39,1,.81,1.53,1.24,1.58a13.13,13.13,0,0,0,3.89-1.25c-.93,0-1.78-.08-2.57-.17m12.42,0q-2.53.18-5.77.35a15.06,15.06,0,0,0,6.39.74q4-.23,4.92-1.5c-2,.16-3.84.29-5.54.41m10.53.89a1.5,1.5,0,0,0,.9-.27,2.69,2.69,0,0,1,1-.41,2.2,2.2,0,0,1-.57-.57.81.81,0,0,0-.44-.36,12.6,12.6,0,0,0-2.54.18c-.76.13-1.56.26-2.4.38.09.13.11.22.08.27s0,.14.08.28Zm8.74-3.44a5,5,0,0,1,1.13-.38c-.64-.39-1.21-.71-1.7-1A10.38,10.38,0,0,1,154.74,9a11.19,11.19,0,0,1,3.36-.73c1.19-.08,1.75-.58,1.67-1.5-.8-.2-1.48-.41-2.08-.62a7.92,7.92,0,0,0-2-.43c-.93,0-1.83,0-2.73,0s-1.78.07-2.72,0c-.76,0-1.46.07-2.07.13s-1.3.11-2.08.14c-.32.69.41,1.11,2.2,1.24,1.47,0,2.41.31,2.79.81s.32,1.11-.24,1.87c-1.86,0-3.64-.11-5.36-.22s-3.49-.18-5.35-.21a.7.7,0,0,0-.79.3l-.31.42A2.28,2.28,0,0,0,140,11a2.32,2.32,0,0,0,1.18.31c2.57.11,5,.16,7.39.16s4.77,0,7.24-.05a2.64,2.64,0,0,0,1-.24m7.49,3.29a14,14,0,0,1,1.44-.81c-.86-.11-1.55-.2-2.06-.28a11.45,11.45,0,0,1-1.24-.24,10.78,10.78,0,0,0-1.68,1.33,10.81,10.81,0,0,1-1.24,1.11q2.53,1.16,3.92-.33a3.29,3.29,0,0,1,.86-.78m9.74,0c.06-.21,0-.4-.28-.58s-.65-.39-1.42-.37-1.33.33-1.93.51-1.24.35-1.93.51c-.45.1-.59.29-.41.56l.4.61,2.74-.46c.76-.14,1.6-.32,2.51-.53.16,0,.27,0,.32-.25m-3.94-4.05a1.71,1.71,0,0,0-.3-.76q4.46.49,6.15-2.6a19,19,0,0,0-2.06-1,18.1,18.1,0,0,1-2.06-1c-.69.27-1.05.54-1.09.81a1.29,1.29,0,0,0,.2.81,3.27,3.27,0,0,0,.69.77,1.12,1.12,0,0,1,.47.71l-3.8-1a5.92,5.92,0,0,0,1-1.75.55.55,0,0,0-.36-.27,9.09,9.09,0,0,0-1.08.31,9.42,9.42,0,0,1-1.07.31l-1.71.4a3.84,3.84,0,0,1-1.74,0,3.82,3.82,0,0,0-3.44.45l6.65,1.73a3.52,3.52,0,0,1,1,.42,4,4,0,0,0,1,.42c-1,.3-1.85.58-2.6.83l-2.25.76.27.41c.93,0,1.91,0,2.95,0s2.2,0,3.44.14a4.63,4.63,0,0,1-.19-.89M133.83,6.07c-1.62,0-3.32.09-5.09.19a3.84,3.84,0,0,1-1.44,0,7.59,7.59,0,0,0-1.35-.1l-2,.48a3.58,3.58,0,0,1,.69.6,1.17,1.17,0,0,0,.9.31,6,6,0,0,1,2.89.5,3.06,3.06,0,0,0,3-.47,12.22,12.22,0,0,1,2-.24,3.79,3.79,0,0,1,1.94.26,3.49,3.49,0,0,0,1.71.36,3.14,3.14,0,0,0,1.13-.38,5.07,5.07,0,0,1,1.06-.48A3.65,3.65,0,0,1,140.64,7c.07-.09.09-.17,0-.24s0-.15,0-.24a6,6,0,0,1-.9-.32,2.26,2.26,0,0,0-1-.18l-5,.05M271.75,20.23a3.45,3.45,0,0,0-1.15.79,3.47,3.47,0,0,1-1.15.8l1.32.51,1.1-1.89Zm-81-11a3.31,3.31,0,0,0-1.42-.37c-.54,0-1,0-1.39,0-.16,0-.33.06-.5.3s-.18.37,0,.41a6,6,0,0,0,1.92.84,2.81,2.81,0,0,0,.77.11,2.44,2.44,0,0,1,.76.12q.26-1.11-.12-1.38m-189.4,11A43.93,43.93,0,0,1,.62,15.5a3.8,3.8,0,0,1,.5-1.64c.3-.53.28-1-.05-1.27C-.1,11.61-.31,10.75.43,10A8,8,0,0,0,2.05,7.8,4.88,4.88,0,0,1,5,5.71,18.45,18.45,0,0,1,9.91,4.8L25.78,3.21Q33.73,2.42,41.92,2q9.38-.43,18.75-.68t19-.62C83.5.62,87.31.49,91.09.35S98.66.13,102.44.1c4-.08,8-.11,12-.09l11.84,0,4,0c1.31,0,2.71,0,4.18.08a1.44,1.44,0,0,1,1,.35,6.45,6.45,0,0,0,1.52.81c-2-.07-3.86-.19-5.54-.35a42.06,42.06,0,0,0-4.84-.16,10,10,0,0,0-2,0l-1.83.2c-1.71,0-3.37,0-5-.13a45.85,45.85,0,0,0-5.1,0,26.54,26.54,0,0,0-3.51.34,37.69,37.69,0,0,1-3.85.43l-12.91.26q-6.32.12-12.68.32a6.26,6.26,0,0,0-2.17.44,12,12,0,0,1-2,.65,65.57,65.57,0,0,1,9.29.06,6.36,6.36,0,0,1,3.72,1.48,5,5,0,0,1,4.4-1.37A25.82,25.82,0,0,1,97.22,4.9,1.45,1.45,0,0,1,97,4.31a1.57,1.57,0,0,0-.28-.58c1.63-.16,3.16-.25,4.59-.28s2.77-.12,4-.26a3.36,3.36,0,0,1,.47,1.68,13.27,13.27,0,0,0,2.41-.59c.53-.2,1.1-.4,1.69-.58a10.46,10.46,0,0,0,1.8-.7l.27.4-.83,1.13a13.79,13.79,0,0,0,2.48.47c.93,0,1.89,0,2.89-.08a28.6,28.6,0,0,1,2.89-.09,8.72,8.72,0,0,1,1.15-.21c.3,0,.65-.06,1-.07.14-.19.18-.31.14-.38a.19.19,0,0,1,0-.24l-6.63-.21a5.26,5.26,0,0,1,2.49-.7l3.62.27a33.92,33.92,0,0,0,3.49.06q3.38,0,6.72-.1c2.24-.09,4.4-.15,6.48-.16,1.48,0,2.92.14,4.32.28l4.22.42a6.74,6.74,0,0,1,2.39-.56,15,15,0,0,1,2.45.14l2.58.33a6.5,6.5,0,0,0,2.31-.07l1.3.93a3.19,3.19,0,0,1,.83.8,3.25,3.25,0,0,0,.85-.79,7.55,7.55,0,0,1,1.07-1.07l.95.25a4.32,4.32,0,0,0,1.63.09q4.19.08,8.31.06t8.3.05c2.33.16,3.28.8,2.83,1.92a2.13,2.13,0,0,1-1,1.51,3.52,3.52,0,0,1-2.72,0,.62.62,0,0,0-.46.05,2.21,2.21,0,0,1-.8.12c1.74,2.59,3.78,3.34,6.12,2.27a11.09,11.09,0,0,0,.11-2.5c2.14.23,4.34.4,6.56.53a6.16,6.16,0,0,0,.67-1.67c-1.41-.15-2.39-.23-2.93-.26-.09-.14-.12-.22-.08-.27s0-.14-.08-.28A4.71,4.71,0,0,0,188.74,5a2.59,2.59,0,0,1,1-.23,10.39,10.39,0,0,1,2.14.13c.65.11,1.38.22,2.18.32q4.75.39,9.37.83t9.31,1c2.42.3,4.78.63,7.05,1s4.59.74,6.94,1.13a4.54,4.54,0,0,1,2,1.18c-.38,0-.83,0-1.32.07s-.95.07-1.34.08a14.86,14.86,0,0,1-2.14-.73,8.76,8.76,0,0,0-2.26-.59c-1.73-.21-3.49-.38-5.3-.49s-3.68-.24-5.64-.39l-7.79-1a8.42,8.42,0,0,1-1.34-.09,7.43,7.43,0,0,0-1.34-.1c-.86-.11-1.65-.2-2.35-.27s-1.51-.12-2.44-.13a.32.32,0,0,0,0-.35c-.62.07-1.73.23-3.35.48a3.36,3.36,0,0,0,.28,2c.31.69-.2,1.31-1.55,1.86a3.75,3.75,0,0,1-.17,1.3c.67-.39,1.28-.71,1.84-1s1.13-.49,1.66-.71a4.27,4.27,0,0,0,2.37.62,1.38,1.38,0,0,0,1-.73c.17-.37.36-.76.56-1.16a1.4,1.4,0,0,1,1.22-.69c-.22,1.07-.39,2.06-.49,3a33.71,33.71,0,0,0,3.69.16c1.06,0,2.13,0,3.23,0l.2-.28-4.75-1.24c.6-.8,1.82-1.12,3.68-1A11.89,11.89,0,0,1,210,10.81a9.51,9.51,0,0,0-1.06.28,9.18,9.18,0,0,1-1.06.29c-.06.09-.07.16,0,.23a.2.2,0,0,1,0,.23,13.63,13.63,0,0,1,1.75.3,8.16,8.16,0,0,0,1.53.23,5,5,0,0,1,.7-1.33,3.55,3.55,0,0,0,.6-1.2c2.35.38,4.48.77,6.37,1.15s3.77.7,5.64,1a38.54,38.54,0,0,0,4.41.56c1.44.09,2.93.23,4.5.41q3.54.59,7,1.41t6.92,1.55a13.37,13.37,0,0,0,1.48.29c.5.08,1,.18,1.47.3.32.09.7.21,1.14.38a4.8,4.8,0,0,0,1.47.3,6.32,6.32,0,0,0,1.29.17,7.92,7.92,0,0,1,1.53.23l5.54,1.69,5.55,1.69a3.54,3.54,0,0,0,1.22.07c.5,0,.94-.07,1.33-.08a6.51,6.51,0,0,0-.66-.84,1.69,1.69,0,0,0-.85-.56,5.64,5.64,0,0,1-2.8-.81,2.66,2.66,0,0,1-1.05-2,7,7,0,0,0-1.27.77,6.4,6.4,0,0,1-1.27.76c-.44-.68-.78-1.24-1-1.69a14,14,0,0,0-.88-1.49l-1,.23c-.1.65-.16,1.25-.2,1.8-2-.62-3.91-1.21-5.77-1.75s-3.79-1.13-5.78-1.75a4,4,0,0,0-2.1-.22,5.18,5.18,0,0,1-2.85,0c-.76-.25-1.53-.48-2.32-.68-.48-.13-1-.24-1.6-.34a13.81,13.81,0,0,1-1.59-.33l-6.41-1.66.41-.57c2.2.35,4.29.7,6.3,1.05s4.11.7,6.3,1l.36-.49c-.41-.21-.81-.44-1.2-.68a4.48,4.48,0,0,0-1.28-.56,13.9,13.9,0,0,0-2-.35l-2.12-.21L234.34,9A19.93,19.93,0,0,0,232,8.55l-8.67-1.29L214.64,6q-3.28-.53-6.38-.93t-6.49-.8c-1.24-.1-2.39-.21-3.44-.32s-2.2-.22-3.44-.31c-1-.16-2-.36-3-.6l-2.85-.75.42-.56q6.19.8,12.45,1.53t12.69,1.58c3.28.42,6.5.9,9.68,1.46s6.41,1.15,9.71,1.79q8,1.41,15.56,3.46T264.42,16a24.24,24.24,0,0,0,2.76.87c1.11.29,1.24.74.41,1.36l2.11.21a6,6,0,0,1,1.9.49,1.56,1.56,0,0,0,.84.39l-.1.14,2.43,1.31,2.43,1.31a77.87,77.87,0,0,1,6.36,4.62,6.94,6.94,0,0,1,2.94,5.43c-.15.19-.06.32.26.41,1.06.61,1.44,1.24,1.14,1.9s-.61,1.34-.93,2c-.21.29-.73.35-1.55.19a30.07,30.07,0,0,1-3-.77,25.08,25.08,0,0,1-3.3-1.28c-1-.5-2-1-2.79-1.4a18.37,18.37,0,0,0-2.75-.88l-1.32-.51-.45.22-19-5.28c-.33-.31-1.82-.73-4.46-1.24s-5.85-1.08-9.65-1.67-8-1.18-12.57-1.75l-13.09-1.64q-6.21-.78-11-1.18t-6.53-.35a8.59,8.59,0,0,1-.84-1.56,3.57,3.57,0,0,1-2.7,1,21.16,21.16,0,0,1-2.47-.48c-1.93.06-3.81.19-5.66.38a1.3,1.3,0,0,1,.8-.88,2,2,0,0,0,.82-.55l-.06-.69a1.65,1.65,0,0,0-.29-.75c-.09-.13-.43-.19-1-.17s-1,.12-1.08.31a5.35,5.35,0,0,0-1.62,1.43,8.07,8.07,0,0,1-1.83,1.71c-1,.08-2,.12-3.06.13s-2.14,0-3.3.06a3.81,3.81,0,0,0-2.67-1.36,7.41,7.41,0,0,0-3.48.1,6.51,6.51,0,0,1-3.09.37,5.37,5.37,0,0,1-2.61-.68,6,6,0,0,0-1.36.5,15.36,15.36,0,0,1-1.45.63,9.32,9.32,0,0,1,0-1.11,2.75,2.75,0,0,0-.14-1c-.76.26-1.44.49-2,.68s-1.14.33-1.6.44a6.43,6.43,0,0,1-2.88.47l-2.52-.05-2.5-.05a26.48,26.48,0,0,0-3.7.41A4.24,4.24,0,0,1,140.2,18a4.5,4.5,0,0,0-2.89-.49,19,19,0,0,1-2.69.39,11.61,11.61,0,0,1-2-.11,15,15,0,0,0-1.7-.19l-1.51-.06a12.3,12.3,0,0,0-1.62.09c-1.23.12-2.52.29-3.9.5a9.38,9.38,0,0,1-3.73-.13,10.42,10.42,0,0,0-2.27-.17,4.27,4.27,0,0,0-1.85.78q-1.6-2.43-4.11-.57c-.06.09-.27.13-.63.09a8,8,0,0,0-1.1,0c-1.54,0-3,.1-4.51.17s-3,.12-4.51.17a2.89,2.89,0,0,1-1.4,0,4.31,4.31,0,0,0-1.63-.09,25.77,25.77,0,0,0-3.92.33,11.82,11.82,0,0,0-1.25.34,3.71,3.71,0,0,1-1.14.21c-2.08,0-4,0-5.8,0s-3.64,0-5.56.06a1.07,1.07,0,0,1-.46,0,1.25,1.25,0,0,0-.46.05,40.11,40.11,0,0,1-5.09,1.54,3.63,3.63,0,0,1-1.5.11q-3.25-.18-6.71-.48a10.44,10.44,0,0,0-6.54,1.58,2.64,2.64,0,0,1-1.26.17l-1.63-.08a3.57,3.57,0,0,1-.94-.08,1.38,1.38,0,0,0-.7,0q-3.33.3-6.79.59t-6.9.72a6,6,0,0,1-1.26.18,1,1,0,0,0-.79.3,5.46,5.46,0,0,1-3.31,1.24,30.23,30.23,0,0,0-3.85.43,24.55,24.55,0,0,0-2.86.43,49.26,49.26,0,0,1-9.74,1.51,36.24,36.24,0,0,1-9.7-.84c-1.18-.2-2.32-.44-3.43-.73a4.68,4.68,0,0,1-2.43-1.3,7.76,7.76,0,0,1-2.76-4.33"/></g></g></svg>