<svg xmlns="http://www.w3.org/2000/svg" viewBox="0 0 48 48.03"><defs><style>.cls-1{fill:#457eb9;}</style></defs><title>icono</title><g id="Capa_2" data-name="Capa 2"><g id="Capa_2-2" data-name="Capa 2"><path class="cls-1" d="M24.05,48a24.09,24.09,0,0,1-5.51-.64A24,24,0,0,1,11.33,3.63,24,24,0,1,1,36.67,44.4,23.79,23.79,0,0,1,24.05,48ZM24,2.49a21.66,21.66,0,1,0,4.93.58A21.45,21.45,0,0,0,24,2.49Z"/><path class="cls-1" d="M17.54,33.86,13,26.58,33,14.17l4.52,7.28Zm-1-6.45,1.82,2.93L34,20.63l-1.82-2.94Z"/><path class="cls-1" d="M35.34,22.8l-4.53-7.28,6.49-4,4.53,7.28Zm-1-6.46,1.82,2.93,2.14-1.33L36.48,15Z"/><polygon class="cls-1" points="13.76 26.73 8.79 34.26 17.74 33.14 17.53 31.88 11.17 32.74 14.75 27.49 13.76 26.73"/></g></g></svg>