<svg xmlns="http://www.w3.org/2000/svg" viewBox="0 0 426.81 861.2"><defs><style>.cls-1{fill:#fff;opacity:0.3;}</style></defs><title>X</title><g id="Capa_2" data-name="Capa 2"><g id="Capa_1-2" data-name="Capa 1"><path class="cls-1" d="M280.65,179.87a6.59,6.59,0,0,0-.1-3,11.47,11.47,0,0,1-.26-3.57,31.4,31.4,0,0,0-18.45,29.12q4.38-3.09,5.73-5.42c2.3-2.77,4.59-5.66,6.84-8.67s4.34-5.82,6.24-8.51m64.74,436.84q-11.64-14.88-23-29.86a120.82,120.82,0,0,0-27.26-26.13A53.15,53.15,0,0,1,301.49,578q1.65,9.16,9.87,15.67a15.26,15.26,0,0,1,5.88,6.44,18.3,18.3,0,0,0,5.28,6.59A172.38,172.38,0,0,1,340.19,626a70.6,70.6,0,0,0,18.95,17,46.94,46.94,0,0,1,5.89,5.44c1.8,2,3.56,3.84,5.29,5.6a50.13,50.13,0,0,1,6.36,6c2.09,2.33,5.23,4.07,9.39,5.21a10.08,10.08,0,0,1-2.23-3.72,6.62,6.62,0,0,0-1.31-2.64q-4.3-4.19-8.43-7.78a50.65,50.65,0,0,1-8.13-9.18,44.06,44.06,0,0,1-9.54-13.44,25,25,0,0,0-11-11.74M287,523.8c.48-3.2-.08-5.38-1.65-6.52a29.11,29.11,0,0,0-5.27-3,33.55,33.55,0,0,0,1,6.36c.53,2.08,2.5,3.11,6,3.12M244,294.22a21.54,21.54,0,0,0,5.5-5.36c1-1.57,1.11-3.8.38-6.71a66.5,66.5,0,0,0-4.48,5.43q-.72,1.19-1.4,6.64m14.45-74.38c2.71-2.89,4-4.88,4-6s-1.88-3.59-5.46-7.54a36.81,36.81,0,0,0-7.53,8.52q-5.55,8.68-11.16,18.36t-10.57,18.2q-3.6,6.2-5.91,11.07c-1.54,3.26-3.37,6.69-5.46,10.3q-1,3.59-1.62,6.36c-.39,1.86.68,3.57,3.24,5.13a18.81,18.81,0,0,0,6.86-6,65,65,0,0,0,4.42-8.07l8.54-14.7c.6-1,1.37-2.23,2.32-3.57a16.35,16.35,0,0,0,2.17-4.18,39.66,39.66,0,0,1,6.26-14.8q4.5-6.42,9.92-13.08m8.7,276.6q8.51.49,6-6.8c-1-2.38-2.12-5-3.25-7.77a68,68,0,0,0-4-8.23,32.84,32.84,0,0,1-3.47-7.38q-1.35-3.94-3-8.15a49.65,49.65,0,0,0-3.86-7.61,15.92,15.92,0,0,0-6.58-5.6,4,4,0,0,1-1.92-2.49c-.27-1-.5-2-.71-2.79a44.06,44.06,0,0,1-7.1-12.74,54.69,54.69,0,0,1-3.38-4.43q-1.53-2.24-3.38-4.43c-1.44-2.28-2.8-4.68-4.09-7.22s-2.7-5.16-4.24-7.84a8.48,8.48,0,0,0-3.48,1.53,39.43,39.43,0,0,0,1.73,17.07,53,53,0,0,0,7.65,14.92q4.15,6.21,7.93,12.19a97.49,97.49,0,0,1,6.87,13.13c2.66,3.73,4.77,6.06,6.29,7q10.51,3.3,12.61,16.64l1.41,5.59a29.85,29.85,0,0,0,2,5.42M147.06,406c-2.05-3-2.4-5.22-1-6.68A12.82,12.82,0,0,1,152.3,396a8.59,8.59,0,0,0-2.77,4.34,24.48,24.48,0,0,1-2.47,5.58m8.69,3.75c2,4.35,2.11,7.38.46,9.13a82.66,82.66,0,0,1-7.11,6.42c1.33-3,2.4-5.67,3.24-8.08a47.91,47.91,0,0,1,3.41-7.47m-10.11,19.73q5.94.48,5.53,6.53c-2.53.21-4.06-.29-4.57-1.49a14.78,14.78,0,0,1-1-5M132,434.2q-2.34-6.68-1.37-9.23t7.73-11.54l1.53.94q-2.1,4.49-3.8,9.22T132,434.2m-11.23,20.68a14.47,14.47,0,0,1,.08-8.61q1.33-3.63,7.24-5.79Zm-.15.7-.15-.62.76.47Zm.61-.15-.76-.47.6-.16ZM117,467.75c-1.76-3.52-2.43-5.77-2-6.76s2.21-2.75,5.43-5.33a19.67,19.67,0,0,1-1.69,6,19.35,19.35,0,0,0-1.7,6.05m-9,11.53a38.53,38.53,0,0,0,3-6c.39-.1,1.16.37,2.29,1.41a18.68,18.68,0,0,0-3,6Zm-1.27,6.27a31.86,31.86,0,0,1-3.59,10.82c-1.75,3.08-3.35,5.92-4.8,8.49a27.47,27.47,0,0,1,.45-10.69q1.27-4.95,7.94-8.62m-8.39,19.31a.56.56,0,0,1-.45.77ZM86.29,492a9.65,9.65,0,0,1,1-2.25c-1-.61-1.58-1.13-1.68-1.54a6.42,6.42,0,0,0-1,2.55,6.51,6.51,0,0,1-1,2.56l1.52.93A8.94,8.94,0,0,0,86.29,492m5,27.14c-.51-.3-.86-.44-1.07-.39s-.56-.07-1.06-.38a97.05,97.05,0,0,1,8.54-12.08,13.79,13.79,0,0,1-2.14,6.82c-1.25,1.86-2.68,3.88-4.27,6m4.58,65.58a3,3,0,0,0,1.88-1.48A7.21,7.21,0,0,1,100.1,581l-2.67-1.64a2.56,2.56,0,0,0-1.75-.55,2.24,2.24,0,0,0-1.8,3.1c-.3.52-.14,1.14.47,1.86s1.12,1,1.53.94m-17-10.24c1.85,4,2,7.2.53,9.78a45.71,45.71,0,0,1-6.29,8.2c.88-3.3,1.81-6.41,2.8-9.3s2-5.79,3-8.68M97.74,462c1.81-1.34,2.6-2.86,2.39-4.57a23.86,23.86,0,0,0-2.79-7.22q6.55-14.87,13.43-29.83t13.87-30.6a13.89,13.89,0,0,1,2.54-5.27c1-1.13,3.38-1.07,7.15.18-1.8,3.09-3.57,6.3-5.32,9.6s-3.52,6.5-5.31,9.6c1.42.53,2.61,1,3.58,1.4a27.75,27.75,0,0,1,3,1.56q.8,5.75-5.26,7.28-8.82.91-3.89,7.59,3.52,3.75.52,7.15c-1.3,3.4-2.56,6.48-3.8,9.21s-2.62,5.4-4.11,8a9.59,9.59,0,0,1-2,2.46,9.75,9.75,0,0,0-2,2.48q-5.52,13.95-11.4,27.67t-12,27.81Q83.13,514,80,520.71A98.23,98.23,0,0,0,74.5,536c-1.27,5.18-3,8.14-5.17,8.91s-6.16-.09-11.95-2.59q7.73-20.44,16.15-40.76T90.12,460c4.17,1.16,6.7,1.83,7.62,2M57.43,603.72c-1.65-3.1-2.32-5.36-2-6.75s2.14-4.73,5.54-10q3.39,5.74,1.07,9.3t-4.58,7.44m-5.38-26.39q-10,1.21-6.16-9A26.7,26.7,0,0,1,49,560.26q2.67-7.28,4.41-8c1.16-.52,4.79.22,10.89,2.19a25.25,25.25,0,0,1-1.74,9.7,81.39,81.39,0,0,1-4.94,9.84c-.9,1.54-2.77,2.67-5.59,3.39M32.75,705.11a3.83,3.83,0,0,1,1.8-3.11c-1.23-1.44-2-2.12-2.45-2a3.83,3.83,0,0,1-1.28,1.32,2.9,2.9,0,0,0-1.12,1.93c.1.42.49.65,1.14.71a2.9,2.9,0,0,1,1.91,1.17m393.1-660.5q2.64,7.92-2,17.66-3.6,6.21-6.66,11.91a23.3,23.3,0,0,1-9.27,9.28,14.56,14.56,0,0,0-4.07,4.33q-9.33,11.61-17.59,23.6t-16.83,24.06a20.1,20.1,0,0,0-5.1,7.89q-5.26,7.26-10.13,14.77t-10.75,14.94q-6.73,11.59-13.87,23T314.51,219.3l-4.05,7a67.93,67.93,0,0,1-4.2,6.34L293.8,252.27q-6,9.45-12.61,19c-.3.52-.55.8-.75.85s-.46.34-.75.85a60.09,60.09,0,0,1-10.89,22.56,175.87,175.87,0,0,0-13.92,20.67c-.58,1-1.17,2.08-1.76,3.1a10,10,0,0,0-1.18,2.93A14.83,14.83,0,0,1,250.2,328a9.79,9.79,0,0,1-4.77,3.84q-3.45,1.55-7.16,8.42c-2.49,4.6-3.46,7.92-2.94,10,.73,2.88,2.74,7,6,12.33s5,9.28,5.26,11.87c.92,2,1.78,3.61,2.55,5a17.76,17.76,0,0,1,1.78,4.5q-.85,6.81,5.72,12.41a17.88,17.88,0,0,0,1.77,1.86,4.06,4.06,0,0,1,1.15,2A24.85,24.85,0,0,0,265,413.67a26.83,26.83,0,0,1,5.5,14.12,18.18,18.18,0,0,0,4.5,10.09q3.51,3.72,7.2,8.07,2.16,3.42,4.69,7.06a22.75,22.75,0,0,1,3.48,7.37A77.89,77.89,0,0,0,300,480.7q6.22,9.33,11.93,19.09a67.52,67.52,0,0,1,7.8,15.51q2.56,7.62-.24,16.89c1.43,2.28,3,3.32,4.66,3.12s3.56-.35,5.69-.46a32.87,32.87,0,0,1,3.89,1.33c1.67.67,2.62,1.43,2.83,2.25a22.15,22.15,0,0,0,5.09,12.9,47.11,47.11,0,0,1,7.46,12.3q2.89,6.54,5.54,12.13a49.88,49.88,0,0,0,7.87,11.54,6.59,6.59,0,0,1,2,4.12,44.61,44.61,0,0,0,.95,5,96.86,96.86,0,0,0,10.87,26.32,160.4,160.4,0,0,0,17.21,23.38q5.07,7.32,10.15,14.61t10.92,15.08a11.39,11.39,0,0,1,1.71,4.2q.16,3.24,3.21,2.48t2.61,2.65a12,12,0,0,1-6.9,2.07,25.79,25.79,0,0,1-7.08-1.18,118.36,118.36,0,0,1-29.3-15,195.26,195.26,0,0,1-25.07-21.4q-7.83-7.93-15.69-16.18T323,617.11q-9.5-9.48-18.15-19.5t-16.33-20a265.45,265.45,0,0,1-16.2-23.27q-7.62-12.25-15.61-23.45-6.13-9-12.13-17.39T233,496q-5.4-8.52-10.09-16.92T213.46,462q-3.08-4.49-9.59-12.42t-12.61-11.65a15.81,15.81,0,0,1-1.71,4.71,8.91,8.91,0,0,0-1.25,4,60.36,60.36,0,0,1-3.43,8.12,28.71,28.71,0,0,1-5.54,7.34q-7.08,7.74-12.28,20.28a16.06,16.06,0,0,1-4.56,8.74,48.83,48.83,0,0,1-6.7,5.32c-.29,2.28-.54,4.66-.77,7.13a16.6,16.6,0,0,1-2.14,6.81q-3.13,8.05-6.85,16.26T138,543.16q-6.69,16.86-14.21,34.29T109,611.88q-3.25,10.07-6.81,18.89t-7.59,18.41a11.06,11.06,0,0,0-1.25,4,5.44,5.44,0,0,1-1.42,3.32,14.16,14.16,0,0,0-6.4,6.58q-1.86,4.1-4.09,8a158,158,0,0,0-8.47,21.29,86.17,86.17,0,0,1-9.39,20.22A30.09,30.09,0,0,0,61,722.74a62.66,62.66,0,0,1-1.8,10.7q-2.77,11.92-5.11,24.41a72.52,72.52,0,0,1-8.59,23.32,23.42,23.42,0,0,0-1.54,6.66,40.21,40.21,0,0,1-1.37,7.29c-.78,3.71-.46,8.38,1,14s1.68,10,.8,13.35c-1.19,2.05-1.64,3.71-1.32,5a83.31,83.31,0,0,0,2.32,14.28q1.8,7.13,3.25,15.36L48,859.81a38,38,0,0,1-10.61,1.37q-4.54-.18-9.92-6.07a100.08,100.08,0,0,1-19-30.54A129.57,129.57,0,0,1,.32,788.63Q-.28,771,.26,754a312.76,312.76,0,0,1,3.13-34.81,176,176,0,0,1,6.43-30.7,298,298,0,0,0,7.65-31q.44-3.4,1.16-6.89A37.2,37.2,0,0,1,21,643.38a196.31,196.31,0,0,1,6.15-19q3.51-9.12,7.08-18a35.3,35.3,0,0,0,2.22-6.5l1.17-5.58A59.37,59.37,0,0,0,40.3,587,57.32,57.32,0,0,1,43,579.75q9.59,2.19,10.9,4.83t-3.49,9.13L47.91,598a8.89,8.89,0,0,0-1.26,3.93,30,30,0,0,1-2.72,10.93c-1.54,3.26-3.32,6.89-5.31,10.9A10.94,10.94,0,0,0,37.44,628a10,10,0,0,1-2.24,5.18,364.58,364.58,0,0,1-18.6,48.92,10.58,10.58,0,0,0-.41,4.73,10.2,10.2,0,0,1-.42,4.72,3.77,3.77,0,0,0-.59,2.8,3.71,3.71,0,0,1-.58,2.79,42.83,42.83,0,0,0-4.68,22.33A58.58,58.58,0,0,1,7.41,736.3a123.71,123.71,0,0,0-3.74,17.12c.05,5.29.22,10.63.52,16.07a36.65,36.65,0,0,0,5.07,16.22c.5-1.45,1-2.8,1.57-4a11.39,11.39,0,0,0,.95-3.88q1.47-7,2.47-13.17t1.42-12.26a319.71,319.71,0,0,1,6-40.15A197.08,197.08,0,0,1,34,674.41a77.7,77.7,0,0,0,2.64-11.23A79.76,79.76,0,0,1,39.31,652a14.76,14.76,0,0,0,1.41-3.33c.35-1.18.92-2.76,1.71-4.72a24,24,0,0,1,4,2,15.39,15.39,0,0,0,4.64,1.8,173.5,173.5,0,0,1-6.82,20.2A41,41,0,0,0,41.58,689l2.93-.74Q50.06,677,55.25,665.57a51.82,51.82,0,0,0,4.5-24.38,13.71,13.71,0,0,1,1.18-5.54A83.61,83.61,0,0,0,75,610.81a218,218,0,0,1,11.18-26.07A21.46,21.46,0,0,0,89.64,578a33.64,33.64,0,0,1,3.3-7.39c-2.66-.19-4.27-1-4.84-2.38a17.72,17.72,0,0,1-1.17-4.6c-.21-1.7-.42-3.38-.63-5.09s-1.3-2.93-3.24-3.76a25.76,25.76,0,0,0-4.51,4.09,36.34,36.34,0,0,1-3.91,3.94,1.79,1.79,0,0,1-1.38-.32q2.13-7.07,4.26-14.16c1.42-4.71,2.88-9.24,4.42-13.56l2.42-.62c.82,1.57,1.52,3,2.09,4.43s1.31,3.09,2.25,5.05a13.19,13.19,0,0,0,6.19-4.87,32.6,32.6,0,0,0,3.43-6.83c.89-2.43,1.85-5,2.9-7.68a17.13,17.13,0,0,1,4.73-6.82c1.55,4.46,1.42,7.81-.42,10a31,31,0,0,0-4.41,7q-1.07,3.6-2.27,7.86T96.13,551c3.45,0,5.56-.63,6.31-1.92a39.28,39.28,0,0,0,2.33-4.89A106.73,106.73,0,0,1,111.22,530q3.75-6.91,7.21-13.75a9.81,9.81,0,0,1,3-3.4,33.52,33.52,0,0,0,3.79-3,112.2,112.2,0,0,1-9.68-10.12c1.11-.71,2.11-1.41,3-2.08a7.8,7.8,0,0,1,2.59-1.33,26.42,26.42,0,0,1,6.92-2.08,37.25,37.25,0,0,0,8.15-2.4q6.36-2.92,6-12.1a54.52,54.52,0,0,0-5.42-.94c-1.79-.2-3.79-.47-6-.79a9.11,9.11,0,0,1,3.62-3.56,31.63,31.63,0,0,0,4.18-2.71,7.78,7.78,0,0,0,2.64-3.64,9.31,9.31,0,0,0,0-5.29,20,20,0,0,1,6.61-.68,6.56,6.56,0,0,0,5.07-1.62,10.17,10.17,0,0,0,3-4.73,13.85,13.85,0,0,1,3.45-5.51q3.42-9.46,7.14-17.69t8.06-16.6a21.17,21.17,0,0,0,2.76-7q.5-3.09-3.63-6.69a10,10,0,0,1-4.3-5.52,25.16,25.16,0,0,0-3.26-6.47,39.81,39.81,0,0,0-8.89-9.65l-2.68-10.57q-4-.31-5.22,2.32c-.85,1.77-1.88,3.67-3.07,5.74a12.13,12.13,0,0,1-2.48,2.94,11.52,11.52,0,0,0-2.48,2.94,41.75,41.75,0,0,1-4.93-6.7q-3.22-5.13.81-12.1l6.29-10.86c2.49-3.72,2.67-7.29.51-10.72q-13-23.18-25.17-45.9T93.92,253.16q-7.58-14.64-16.59-28.56t-17-27.77q-4.48-7.49-8.49-14.41t-9.09-14.24q-5.25-7.92-9.94-16.32a69.14,69.14,0,0,0-11.62-15.27Q14,131.13,18,121.52t13-7.27a40.21,40.21,0,0,0,3.3-4.8l2.25-3.88c2.39-4.14,6.13-6.4,11.19-6.81a25.28,25.28,0,0,0,9-1.29,77.27,77.27,0,0,0,8-3q6.34-2.92,10.18-.58T85,100.58c1.53.94,2.69,1.3,3.51,1.1q12.73-.57,18.65,7.52t11.12,16q7.07,10.13,12.76,19.93t11.39,19.61l.63,2.49a93.31,93.31,0,0,0,11.77,27.46q8,12.54,15.07,25.29l6.79,12.84q3.09,5.85,5.86,11.75c.82,1.56,1.47,2.83,1.94,3.81a29.64,29.64,0,0,0,1.77,3.2q2.59,2.64,7.7-1.3a37.71,37.71,0,0,0,7.94-8q1.19-2.94,2.22-5.19a24.26,24.26,0,0,1,3-4.73q8-13.94,15.92-27.18a199.92,199.92,0,0,0,13.8-28,107.37,107.37,0,0,1,7.11-15A165.91,165.91,0,0,1,253.21,148q13.34-21.26,27.13-43.26t29.11-43.1q6.44-10.25,13-20.15t13.29-18.92q8.1-11.29,15.21-16.4a33.17,33.17,0,0,1,8.86-4.55c3-1,6.24-.37,9.81,1.81q5,2,7.13-1.15c1.41-2.11,3.93-2.75,7.59-1.92.31,1.24.65,2.59,1,4a15.67,15.67,0,0,1,.12,5.57q4,.33,7.6.72c2.43.27,5,.5,7.61.71a29.67,29.67,0,0,1,6.77,1.25c1.87.64,2.78,2.49,2.7,5.59.53,2.08,1.29,3.42,2.32,4a18.89,18.89,0,0,1,8.28,9.79q2.17,6,5.12,12.56"/></g></g></svg>